<svg width="19" height="16" viewBox="0 0 19 16" fill="none" xmlns="http://www.w3.org/2000/svg">
<path d="M17.1867 1.57174C16.2989 0.558179 15.0673 0 13.7188 0C11.8221 0 10.6214 1.1397 9.94807 2.09582C9.77337 2.34393 9.62477 2.5927 9.5 2.8268C9.37523 2.5927 9.22666 2.34393 9.05193 2.09582C8.37862 1.1397 7.17786 0 5.28125 0C3.93273 0 2.7011 0.558215 1.81326 1.57178C0.966418 2.53865 0.5 3.83357 0.5 5.21798C0.5 6.72496 1.08475 8.1266 2.34025 9.62894C3.46234 10.9717 5.07661 12.3557 6.9459 13.9584C7.64245 14.5557 8.36277 15.1733 9.12963 15.8484L9.15266 15.8687C9.25208 15.9562 9.37604 16 9.5 16C9.62396 16 9.74792 15.9562 9.84734 15.8687L9.87037 15.8484C10.6372 15.1733 11.3576 14.5557 12.0542 13.9584C13.9234 12.3558 15.5377 10.9717 16.6597 9.62894C17.9152 8.12656 18.5 6.72496 18.5 5.21798C18.5 3.83357 18.0336 2.53865 17.1867 1.57174ZM11.3701 13.1507C10.7696 13.6656 10.1516 14.1954 9.5 14.7654C8.84841 14.1955 8.2304 13.6656 7.62983 13.1507C3.9715 10.0141 1.55469 7.94192 1.55469 5.21798C1.55469 4.09207 1.92752 3.04632 2.60452 2.27339C3.2893 1.4917 4.23989 1.06118 5.28125 1.06118C6.72719 1.06118 7.66189 1.95745 8.19134 2.70933C8.66627 3.38367 8.91409 4.06346 8.9986 4.3244C9.0693 4.54283 9.2717 4.69065 9.5 4.69065C9.7283 4.69065 9.9307 4.54283 10.0014 4.3244C10.0859 4.06346 10.3337 3.38367 10.8087 2.70929C11.3381 1.95745 12.2728 1.06118 13.7188 1.06118C14.7601 1.06118 15.7107 1.4917 16.3954 2.27339C17.0725 3.04632 17.4453 4.09207 17.4453 5.21798C17.4453 7.94192 15.0285 10.0141 11.3701 13.1507Z" fill="#232323"/>
</svg>
