<svg width="21" height="20" viewBox="0 0 21 20" fill="none" xmlns="http://www.w3.org/2000/svg">
<g clip-path="url(#clip0_7_211)">
<path d="M10.5 20C16.0228 20 20.5 15.5228 20.5 10C20.5 4.47715 16.0228 0 10.5 0C4.97715 0 0.5 4.47715 0.5 10C0.5 15.5228 4.97715 20 10.5 20Z" fill="#F0F0F0"/>
<path d="M10.0649 9.99905H20.4997C20.4997 9.09647 20.3794 8.22209 20.1552 7.39034H10.0649V9.99905Z" fill="#D80027"/>
<path d="M10.0649 4.78176H19.032C18.4198 3.78286 17.6371 2.89993 16.7245 2.17305H10.0649V4.78176Z" fill="#D80027"/>
<path d="M10.4996 19.9991C12.8531 19.9991 15.0163 19.1857 16.7245 17.8252H4.27478C5.98298 19.1857 8.14615 19.9991 10.4996 19.9991Z" fill="#D80027"/>
<path d="M1.96724 15.2166H19.0318C19.5232 14.4147 19.9043 13.5382 20.155 12.6079H0.843994C1.09466 13.5382 1.47579 14.4147 1.96724 15.2166Z" fill="#D80027"/>
<path d="M5.13219 1.56164H6.04348L5.19582 2.17746L5.51961 3.17391L4.67199 2.55809L3.82437 3.17391L4.10406 2.31309C3.35773 2.93477 2.70359 3.66313 2.16453 4.47469H2.45652L1.91695 4.86668C1.83289 5.00691 1.75227 5.14937 1.675 5.29395L1.93266 6.08695L1.45195 5.7377C1.33246 5.99086 1.22316 6.24973 1.12492 6.51398L1.40879 7.38773H2.45652L1.60887 8.00356L1.93266 9L1.08504 8.38418L0.577305 8.75309C0.526484 9.1616 0.5 9.57769 0.5 10H10.5C10.5 4.47719 10.5 3.82609 10.5 0C8.52453 0 6.68301 0.573047 5.13219 1.56164ZM5.51961 9L4.67199 8.38418L3.82437 9L4.14816 8.00356L3.30051 7.38773H4.34824L4.67199 6.39129L4.99574 7.38773H6.04348L5.19582 8.00356L5.51961 9ZM5.19582 5.09051L5.51961 6.08695L4.67199 5.47113L3.82437 6.08695L4.14816 5.09051L3.30051 4.47469H4.34824L4.67199 3.47824L4.99574 4.47469H6.04348L5.19582 5.09051ZM9.10656 9L8.25895 8.38418L7.41133 9L7.73512 8.00356L6.88746 7.38773H7.9352L8.25895 6.39129L8.5827 7.38773H9.63043L8.78277 8.00356L9.10656 9ZM8.78277 5.09051L9.10656 6.08695L8.25895 5.47113L7.41133 6.08695L7.73512 5.09051L6.88746 4.47469H7.9352L8.25895 3.47824L8.5827 4.47469H9.63043L8.78277 5.09051ZM8.78277 2.17746L9.10656 3.17391L8.25895 2.55809L7.41133 3.17391L7.73512 2.17746L6.88746 1.56164H7.9352L8.25895 0.565195L8.5827 1.56164H9.63043L8.78277 2.17746Z" fill="#0052B4"/>
</g>
<defs>
<clipPath id="clip0_7_211">
<rect width="20" height="20" fill="white" transform="translate(0.5)"/>
</clipPath>
</defs>
</svg>
