<svg width="91" height="44" viewBox="0 0 91 44" fill="none" xmlns="http://www.w3.org/2000/svg">
<path d="M24.9477 12.3952C22.5204 11.0646 19.7697 10.3979 16.7013 10.3979C13.633 10.3979 10.6987 11.0822 8.25099 12.4539C5.80331 13.8256 3.90053 15.7818 2.53974 18.3284C1.17894 20.875 0.5 23.8299 0.5 27.1989C0.5 30.568 1.1906 33.4641 2.56887 36.0107C3.94715 38.5573 5.87033 40.5252 8.33841 41.9146C10.8065 43.3039 13.5922 44 16.7013 44C20.5477 44 23.7909 42.9925 26.4338 40.9746C29.0767 38.9567 30.8629 36.3837 31.7954 33.2497H22.9954C21.7132 35.8726 19.557 37.1856 16.5265 37.1856C14.4285 37.1856 12.6597 36.5188 11.2232 35.1883C9.78662 33.8577 8.97073 32.016 8.7755 29.6662H32.3781C32.5326 28.7263 32.6113 27.6689 32.6113 26.494C32.6113 23.3218 31.9411 20.5108 30.6007 18.0641C29.2603 15.6174 27.375 13.7258 24.9477 12.3952ZM8.83377 24.1442C9.14556 21.9501 9.9906 20.2376 11.3689 19.004C12.7472 17.7704 14.4489 17.1535 16.4682 17.1535C18.6041 17.1535 20.4107 17.7909 21.8881 19.0627C23.3654 20.3346 24.123 22.0294 24.1609 24.1442H8.83377Z" fill="#232323"/>
<path d="M43.0523 0H34.8934V43.4713H43.0523V0Z" fill="#232323"/>
<path d="M54.5914 0H46.4324V43.4713H54.5914V0Z" fill="#232323"/>
<path d="M82.2828 10.9266V15.5674C81.1959 14.0782 79.7477 12.8446 77.9411 11.8665C76.1344 10.8884 74.0277 10.3979 71.6179 10.3979C68.8584 10.3979 66.3641 11.0822 64.1291 12.4539C61.8942 13.8256 60.1283 15.7818 58.8258 18.3284C57.5233 20.875 56.8735 23.7917 56.8735 27.0814C56.8735 30.3712 57.5233 33.3583 58.8258 35.9226C60.1283 38.4868 61.8942 40.4753 64.1291 41.8852C66.3641 43.2951 68.8409 44 71.5596 44C73.9694 44 76.0965 43.5007 77.9411 42.502C79.7856 41.5033 81.2338 40.2403 82.2828 38.713V43.4713H90.5V10.9266H82.2828ZM81.1172 32.3391C80.3392 33.7696 79.2902 34.8652 77.9702 35.6288C76.6502 36.3925 75.2311 36.7744 73.7159 36.7744C72.2007 36.7744 70.8515 36.3837 69.549 35.5995C68.2465 34.8152 67.1975 33.6903 66.402 32.2216C65.6065 30.753 65.2073 29.0406 65.2073 27.0814C65.2073 25.1223 65.6065 23.4304 66.402 22C67.1975 20.5696 68.2377 19.4828 69.5199 18.7397C70.802 17.9965 72.2007 17.6235 73.7159 17.6235C75.2311 17.6235 76.6502 18.0053 77.9702 18.769C79.2902 19.5327 80.3392 20.6283 81.1172 22.0587C81.8952 23.4892 82.2828 25.2016 82.2828 27.1989C82.2828 29.1963 81.8952 30.9087 81.1172 32.3391Z" fill="#232323"/>
<path d="M32.5559 0H0.5V6.02724H32.5559V0Z" fill="#232323"/>
</svg>
