<svg width="17" height="16" viewBox="0 0 17 16" fill="none" xmlns="http://www.w3.org/2000/svg">
<path d="M15.3326 2.32094C14.5435 1.4255 13.4487 0.932373 12.25 0.932373C10.5641 0.932373 9.49678 1.93925 8.89828 2.78394C8.743 3.00312 8.61091 3.2229 8.5 3.42972C8.38909 3.2229 8.25703 3.00312 8.10172 2.78394C7.50322 1.93925 6.43587 0.932373 4.75 0.932373C3.55131 0.932373 2.45653 1.42553 1.66734 2.32097C0.914594 3.17515 0.5 4.31915 0.5 5.54222C0.5 6.87356 1.01978 8.11184 2.13578 9.43909C3.13319 10.6253 4.56809 11.8481 6.22969 13.264C6.84884 13.7916 7.48912 14.3372 8.17078 14.9337L8.19125 14.9516C8.27962 15.029 8.38981 15.0676 8.5 15.0676C8.61019 15.0676 8.72038 15.0289 8.80875 14.9516L8.82922 14.9337C9.51087 14.3372 10.1512 13.7917 10.7704 13.2639C12.4319 11.8481 13.8668 10.6254 14.8642 9.43909C15.9802 8.11181 16.5 6.87356 16.5 5.54222C16.5 4.31915 16.0854 3.17515 15.3326 2.32094ZM10.1623 12.5504C9.62853 13.0052 9.07922 13.4733 8.5 13.9769C7.92081 13.4734 7.37147 13.0053 6.83763 12.5504C3.58578 9.77934 1.4375 7.94869 1.4375 5.54222C1.4375 4.54753 1.76891 3.62365 2.37069 2.94081C2.97937 2.25022 3.82434 1.86987 4.75 1.86987C6.03528 1.86987 6.86613 2.66169 7.33675 3.32594C7.75891 3.92169 7.97919 4.52225 8.05431 4.75278C8.11716 4.94575 8.29706 5.07634 8.5 5.07634C8.70294 5.07634 8.88284 4.94575 8.94569 4.75278C9.02081 4.52225 9.24109 3.92169 9.66325 3.3259C10.1339 2.66169 10.9647 1.86987 12.25 1.86987C13.1757 1.86987 14.0206 2.25022 14.6293 2.94081C15.2311 3.62365 15.5625 4.54753 15.5625 5.54222C15.5625 7.94869 13.4142 9.77934 10.1623 12.5504Z" fill="#232323"/>
</svg>
