<svg width="17" height="16" viewBox="0 0 17 16" fill="none" xmlns="http://www.w3.org/2000/svg">
<path d="M8.49973 0.0101884C10.6242 0.0196825 12.6595 0.862835 14.1658 2.35738C15.4047 3.60818 16.1999 5.22856 16.4305 6.97184C16.6611 8.71512 16.3143 10.4858 15.4431 12.0144C14.7428 13.2322 13.7311 14.2428 12.5112 14.943C11.2914 15.6432 9.90708 16.0079 8.49973 15.9998C7.73036 16.0051 6.9641 15.9019 6.2237 15.6932C6.62704 15.0418 6.89594 14.4574 7.03999 13.9688L7.6066 11.7749C7.74105 12.0431 8.00035 12.273 8.37488 12.4742C8.75902 12.6658 9.14317 12.7712 9.56572 12.7712C10.4012 12.7712 11.1503 12.5317 11.8129 12.0527C12.4941 11.5491 13.0252 10.8702 13.3495 10.0887C13.7205 9.19994 13.9036 8.24431 13.8873 7.28168C13.8873 6.03623 13.4071 4.97281 12.4564 4.06268C11.9691 3.60495 11.3957 3.24818 10.7693 3.01302C10.1429 2.77786 9.47592 2.66898 8.80704 2.69269C7.91392 2.69269 7.07841 2.84597 6.32933 3.15255C5.39989 3.5049 4.5962 4.12453 4.02005 4.93293C3.44391 5.74134 3.12125 6.70214 3.09295 7.69363C3.09295 8.41216 3.2274 9.04446 3.5059 9.59054C3.7748 10.127 4.17815 10.5103 4.72555 10.7402C4.82158 10.7785 4.90801 10.7785 4.97524 10.7402C5.04246 10.7114 5.09048 10.6444 5.11929 10.5486L5.29215 9.89712C5.34017 9.75341 5.31136 9.6097 5.18652 9.466C4.81201 9.03363 4.61632 8.47537 4.63912 7.9044C4.63071 7.38652 4.72869 6.87242 4.92702 6.39375C5.12535 5.91508 5.41983 5.482 5.79232 5.12118C6.16481 4.76037 6.60741 4.47946 7.09286 4.29577C7.5783 4.11207 8.09631 4.02949 8.61497 4.0531C9.66176 4.0531 10.4781 4.34051 11.0543 4.90575C11.6401 5.48057 11.9378 6.21826 11.9378 7.12839C11.9378 7.89482 11.8321 8.60377 11.6209 9.24565C11.4511 9.82649 11.145 10.3586 10.7277 10.7977C10.3436 11.1809 9.89224 11.3725 9.38325 11.3725C8.9703 11.3725 8.63418 11.2288 8.36528 10.9222C8.10599 10.6156 8.01955 10.2516 8.11559 9.83963C8.2622 9.32756 8.41266 8.8166 8.56695 8.30678L8.73982 7.60741C8.79744 7.35832 8.82625 7.15713 8.82625 6.98469C8.82625 6.6398 8.73021 6.35238 8.55735 6.13204C8.36528 5.91169 8.10599 5.79672 7.76026 5.79672C7.3281 5.79672 6.96317 5.98833 6.67506 6.39071C6.38696 6.7835 6.2333 7.28168 6.2333 7.88524C6.2381 8.25882 6.29631 8.62981 6.40616 8.98698L6.46378 9.13069C5.88757 11.6024 5.55145 13.0586 5.4266 13.4802C5.31136 14.0071 5.27295 14.6298 5.30176 15.3388C3.87761 14.7099 2.66639 13.6832 1.81433 12.3827C0.962259 11.0822 0.505779 9.56344 0.5 8.00979C0.5 5.8063 1.27788 3.90939 2.84326 2.35738C3.57486 1.60011 4.45418 1.00034 5.427 0.59501C6.39982 0.189683 7.44555 -0.0126065 8.49973 0.000608095V0.0101884Z" fill="#232323"/>
</svg>
