<svg width="21" height="20" viewBox="0 0 21 20" fill="none" xmlns="http://www.w3.org/2000/svg">
<g clip-path="url(#clip0_7_189)">
<path d="M10.5 20C16.0228 20 20.5 15.5228 20.5 10C20.5 4.47715 16.0228 0 10.5 0C4.97715 0 0.5 4.47715 0.5 10C0.5 15.5228 4.97715 20 10.5 20Z" fill="#F0F0F0"/>
<path d="M2.56669 3.91124C1.78118 4.93323 1.18888 6.11116 0.843994 7.39081H6.04626L2.56669 3.91124Z" fill="#0052B4"/>
<path d="M20.1551 7.39077C19.8102 6.11116 19.2178 4.93323 18.4324 3.91124L14.9529 7.39077H20.1551Z" fill="#0052B4"/>
<path d="M0.843994 12.6084C1.18892 13.8881 1.78122 15.066 2.56669 16.0879L6.04614 12.6084H0.843994Z" fill="#0052B4"/>
<path d="M16.5877 2.06677C15.5657 1.28126 14.3878 0.688958 13.1082 0.344036V5.54626L16.5877 2.06677Z" fill="#0052B4"/>
<path d="M4.41113 17.9324C5.43313 18.7179 6.61105 19.3102 7.89066 19.6551V14.4529L4.41113 17.9324Z" fill="#0052B4"/>
<path d="M7.89062 0.344036C6.61102 0.688958 5.43309 1.28126 4.41113 2.06673L7.89062 5.54622V0.344036Z" fill="#0052B4"/>
<path d="M13.1082 19.6551C14.3878 19.3102 15.5657 18.7179 16.5876 17.9324L13.1082 14.4529V19.6551Z" fill="#0052B4"/>
<path d="M14.9529 12.6084L18.4324 16.088C19.2178 15.066 19.8102 13.8881 20.1551 12.6084H14.9529Z" fill="#0052B4"/>
<path d="M20.4154 8.69566H11.8044H11.8044V0.0846484C11.3774 0.0290625 10.9421 0 10.5 0C10.0579 0 9.62262 0.0290625 9.19566 0.0846484V8.69559V8.69563H0.584648C0.529063 9.12262 0.5 9.55793 0.5 10C0.5 10.4421 0.529063 10.8774 0.584648 11.3043H9.19559H9.19563V19.9154C9.62262 19.9709 10.0579 20 10.5 20C10.9421 20 11.3774 19.971 11.8043 19.9154V11.3044V11.3044H20.4154C20.4709 10.8774 20.5 10.4421 20.5 10C20.5 9.55793 20.4709 9.12262 20.4154 8.69566Z" fill="#D80027"/>
<path d="M13.1086 12.6087L17.571 17.071C17.7762 16.8659 17.972 16.6514 18.1588 16.429L14.3384 12.6086H13.1086V12.6087Z" fill="#D80027"/>
<path d="M7.89109 12.6086H7.89102L3.42871 17.0709C3.63387 17.2762 3.84836 17.472 4.0707 17.6588L7.89109 13.8383V12.6086Z" fill="#D80027"/>
<path d="M7.89122 7.39123V7.39115L3.42888 2.92877C3.22364 3.13393 3.02786 3.34842 2.84106 3.57076L6.66149 7.39119L7.89122 7.39123Z" fill="#D80027"/>
<path d="M13.1086 7.3915L17.571 2.92908C17.3659 2.72385 17.1514 2.52807 16.929 2.34131L13.1086 6.16174V7.3915Z" fill="#D80027"/>
</g>
<defs>
<clipPath id="clip0_7_189">
<rect width="20" height="20" fill="white" transform="translate(0.5)"/>
</clipPath>
</defs>
</svg>
