<svg width="17" height="16" viewBox="0 0 17 16" fill="none" xmlns="http://www.w3.org/2000/svg">
<path d="M8.5 4.75C6.69063 4.75 5.21875 6.22188 5.21875 8.03125C5.21875 9.84062 6.69063 11.3125 8.5 11.3125C10.3094 11.3125 11.7812 9.84062 11.7812 8.03125C11.7812 6.22188 10.3094 4.75 8.5 4.75ZM8.5 4.75C6.69063 4.75 5.21875 6.22188 5.21875 8.03125C5.21875 9.84062 6.69063 11.3125 8.5 11.3125C10.3094 11.3125 11.7812 9.84062 11.7812 8.03125C11.7812 6.22188 10.3094 4.75 8.5 4.75ZM14.1562 0H2.84375C1.55 0 0.5 1.05 0.5 2.34375V13.6562C0.5 14.95 1.55 16 2.84375 16H14.1562C15.45 16 16.5 14.95 16.5 13.6562V2.34375C16.5 1.05 15.45 0 14.1562 0ZM8.5 12.25C6.17503 12.25 4.28125 10.3562 4.28125 8.03125C4.28125 5.70622 6.17503 3.8125 8.5 3.8125C10.825 3.8125 12.7188 5.70622 12.7188 8.03125C12.7188 10.3562 10.825 12.25 8.5 12.25ZM13.6562 3.8125C13.1406 3.8125 12.7188 3.39062 12.7188 2.875C12.7188 2.35938 13.1406 1.9375 13.6562 1.9375C14.1719 1.9375 14.5938 2.35938 14.5938 2.875C14.5938 3.39062 14.1719 3.8125 13.6562 3.8125ZM8.5 4.75C6.69063 4.75 5.21875 6.22188 5.21875 8.03125C5.21875 9.84062 6.69063 11.3125 8.5 11.3125C10.3094 11.3125 11.7812 9.84062 11.7812 8.03125C11.7812 6.22188 10.3094 4.75 8.5 4.75ZM8.5 4.75C6.69063 4.75 5.21875 6.22188 5.21875 8.03125C5.21875 9.84062 6.69063 11.3125 8.5 11.3125C10.3094 11.3125 11.7812 9.84062 11.7812 8.03125C11.7812 6.22188 10.3094 4.75 8.5 4.75ZM8.5 4.75C6.69063 4.75 5.21875 6.22188 5.21875 8.03125C5.21875 9.84062 6.69063 11.3125 8.5 11.3125C10.3094 11.3125 11.7812 9.84062 11.7812 8.03125C11.7812 6.22188 10.3094 4.75 8.5 4.75Z" fill="#232323"/>
</svg>
