<svg width="21" height="20" viewBox="0 0 21 20" fill="none" xmlns="http://www.w3.org/2000/svg">
<path d="M3.5 8.70592C3.5246 6.28067 4.92683 4.32522 6.95637 3.47415C8.58001 2.79311 10.2344 2.83869 11.8036 3.65646C13.392 4.48386 14.4051 5.80473 14.753 7.56823C15.0868 9.26249 14.7231 10.8209 13.6495 12.1935C13.5309 12.3451 13.5502 12.4275 13.6776 12.5546C14.869 13.7449 16.0551 14.9404 17.2411 16.1359C17.3123 16.2078 17.3888 16.2814 17.4397 16.3673C17.5451 16.5479 17.5082 16.717 17.3606 16.8617C17.2201 16.9993 17.0514 17.0562 16.888 16.9292C16.6938 16.7775 16.5172 16.6013 16.3415 16.4269C15.2634 15.3602 14.188 14.2909 13.1109 13.2234C12.8842 12.9981 12.8877 13.0042 12.6347 13.1944C11.3933 14.1253 10.0033 14.5083 8.45876 14.3041C6.64887 14.0657 5.27739 13.1392 4.31357 11.6141C3.75655 10.7315 3.52372 9.74456 3.5 8.70592ZM14.0088 8.71205C14.0141 6.07206 11.8378 3.89486 9.19326 3.89486C6.5531 3.89398 4.35223 6.0817 4.35311 8.70329C4.35487 11.3144 6.56452 13.5117 9.19414 13.517C11.8071 13.5205 14.0035 11.3293 14.0088 8.71205Z" fill="#232323"/>
</svg>
