<svg width="21" height="14" viewBox="0 0 21 14" fill="none" xmlns="http://www.w3.org/2000/svg">
<path d="M20.1 2.2C20.5 3.74 20.5 7 20.5 7C20.5 7 20.5 10.26 20.1 11.8C19.9887 12.2337 19.7629 12.6296 19.4463 12.9463C19.1296 13.2629 18.7337 13.4887 18.3 13.6C16.76 14 10.5 14 10.5 14C10.5 14 4.24 14 2.7 13.6C2.26626 13.4887 1.87039 13.2629 1.55375 12.9463C1.23711 12.6296 1.01132 12.2337 0.9 11.8C0.5 10.26 0.5 7 0.5 7C0.5 7 0.5 3.74 0.9 2.2C1.14 1.32 1.82 0.64 2.7 0.4C4.24 0 10.5 0 10.5 0C10.5 0 16.76 0 18.3 0.4C19.18 0.64 19.86 1.32 20.1 2.2ZM8.5 10L13.7 7L8.5 4V10Z" fill="#232323"/>
</svg>
